<svg width="64" height="64" viewBox="0 0 64 64" fill="none" xmlns="http://www.w3.org/2000/svg">
<path d="M10.375 9.75H22.7785C23.5379 9.75 24.1535 9.13438 24.1535 8.375C24.1535 7.61563 23.5379 7 22.7785 7H10.375C9.61563 7 9 7.61563 9 8.375C9 9.13438 9.61563 9.75 10.375 9.75Z" fill="#3568B4"></path>
<path d="M10.375 16H21.4354C22.1947 16 22.8104 15.3844 22.8104 14.625C22.8104 13.8656 22.1947 13.25 21.4354 13.25H10.375C9.61563 13.25 9 13.8656 9 14.625C9 15.3844 9.61563 16 10.375 16Z" fill="#3568B4"></path>
<path d="M9 33.375C9 34.1344 9.61563 34.75 10.375 34.75H16.1654V32H10.375C9.61563 32 9 32.6156 9 33.375Z" fill="#3568B4"></path>
<path d="M9 27.125C9 27.8844 9.61563 28.5 10.375 28.5H19.3916L21.8105 25.75H10.375C9.61563 25.75 9 26.3656 9 27.125Z" fill="#3568B4"></path>
<path d="M9 39.625C9 40.3844 9.61563 41 10.375 41H16.1654V38.25H10.375C9.61563 38.25 9 38.8656 9 39.625Z" fill="#3568B4"></path>
<path d="M23.3289 19.5H10.375C9.61563 19.5 9 20.1156 9 20.875C9 21.6344 9.61563 22.25 10.375 22.25H23.3289C24.0882 22.25 24.7039 21.6344 24.7039 20.875C24.7039 20.1156 24.0882 19.5 23.3289 19.5Z" fill="#3568B4"></path>
<path d="M58.1358 14.0848H52.1904C51.4311 14.0848 50.8154 14.7005 50.8154 15.4598C50.8154 16.2192 51.4311 16.8348 52.1904 16.8348H58.1358C58.8952 16.8348 59.5108 16.2192 59.5108 15.4598C59.5108 14.7005 58.8952 14.0848 58.1358 14.0848Z" fill="#161C2D"></path>
<path d="M47.7399 10.1329C47.9564 10.2579 48.1929 10.3174 48.4262 10.3174C48.9013 10.3174 49.3636 10.0708 49.6183 9.6297L52.5911 4.48082C52.9708 3.8232 52.7454 2.9822 52.0878 2.60257C51.4302 2.22307 50.5893 2.4482 50.2096 3.10582L47.2368 8.2547C46.8569 8.91232 47.0823 9.7532 47.7399 10.1329Z" fill="#161C2D"></path>
<path d="M53.1774 61.25H28.8306V32.7701C28.8306 31.1645 28.2875 29.684 27.3771 28.5H44.7259V25.75H33.3469V21.2089H30.5969V25.75H21.8105C17.9396 25.75 14.7904 28.8993 14.7904 32.7701V41.2299C14.7904 43.5844 12.8748 45.5 10.5201 45.5C8.16563 45.5 6.25 43.5844 6.25 41.2299V2.75H30.5968V7.04112H33.3467V1.375C33.3467 0.615625 32.7311 0 31.9718 0H4.875C4.11563 0 3.5 0.615625 3.5 1.375V41.2299C3.5 45.1007 6.64925 48.25 10.5201 48.25H26.0806V62.625C26.0806 63.3844 26.6963 64 27.4556 64H54.5524C55.3118 64 55.9274 63.3844 55.9274 62.625V36.9766H53.1774V61.25ZM16.0869 45.5C16.9974 44.316 17.5404 42.8355 17.5404 41.2299V32.7701C17.5404 30.4156 19.456 28.5 21.8105 28.5C24.165 28.5 26.0806 30.4156 26.0806 32.7701V45.5H16.0869Z" fill="#161C2D"></path>
<path d="M36.0421 56.0579C36.8014 56.0579 37.4171 55.4423 37.4171 54.6829V54.1439C39.1938 53.5933 40.3302 52.0313 40.5893 50.4901C40.9391 48.4092 39.8112 46.5292 37.7826 45.8122C36.7069 45.4319 35.5189 44.9739 34.8629 44.4596C34.7023 44.3336 34.6341 44.0121 34.6971 43.6778C34.7302 43.5019 34.8843 42.9141 35.4754 42.7361C36.5269 42.4193 37.5099 42.8657 37.8838 43.0723C38.5483 43.4398 39.3851 43.1988 39.7524 42.5342C40.1198 41.8696 39.8789 41.0329 39.2143 40.6656C38.8006 40.4369 38.1778 40.1539 37.4172 39.9951V39.6688C37.4172 38.9094 36.8016 38.2938 36.0422 38.2938C35.2828 38.2938 34.6672 38.9094 34.6672 39.6688V40.1081C33.2952 40.5278 32.2718 41.6988 31.9949 43.1686C31.7381 44.5316 32.1868 45.8553 33.1661 46.6233C34.1324 47.3812 35.5156 47.9276 36.8663 48.4049C37.9217 48.7781 37.9529 49.5858 37.8776 50.0341C37.7514 50.7841 37.1206 51.5944 36.0331 51.6017C34.8947 51.6097 34.5687 51.5579 33.7084 50.9952C33.0731 50.5796 32.2209 50.7578 31.8051 51.3932C31.3893 52.0287 31.5676 52.8808 32.2031 53.2966C33.1397 53.9093 33.8426 54.1782 34.6673 54.2867V54.6829C34.6671 55.4424 35.2827 56.0579 36.0421 56.0579Z" fill="#161C2D"></path>
<path d="M51.6249 21.1946C46.7313 21.1946 42.7499 25.176 42.7499 30.0696C42.7499 30.7405 42.8272 31.3932 42.9689 32.022H32.9556C32.1962 32.022 31.5806 32.6376 31.5806 33.397C31.5806 34.1563 32.1962 34.772 32.9556 34.772H44.1032C45.6741 37.2756 48.4574 38.9446 51.6249 38.9446C56.5186 38.9446 60.4999 34.9632 60.4999 30.0696C60.4999 25.176 56.5186 21.1946 51.6249 21.1946ZM51.6249 36.1946C48.2476 36.1946 45.4999 33.447 45.4999 30.0696C45.4999 26.6922 48.2476 23.9446 51.6249 23.9446C55.0023 23.9446 57.7499 26.6922 57.7499 30.0696C57.7499 33.447 55.0023 36.1946 51.6249 36.1946Z" fill="#3568B4"></path>
<path d="M43.3103 14.125C43.3103 9.23138 39.3289 5.25 34.4353 5.25C29.5417 5.25 25.5603 9.23138 25.5603 14.125C25.5603 19.0186 29.5417 23 34.4353 23C39.3289 23 43.3103 19.0186 43.3103 14.125ZM28.3103 14.125C28.3103 10.7476 31.0579 8 34.4353 8C37.8127 8 40.5603 10.7476 40.5603 14.125C40.5603 17.5024 37.8127 20.25 34.4353 20.25C31.0579 20.25 28.3103 17.5024 28.3103 14.125Z" fill="#3568B4"></path>
<path d="M49.0524 50.772H46.1572C45.3979 50.772 44.7822 51.3876 44.7822 52.147C44.7822 52.9063 45.3979 53.522 46.1572 53.522H49.0524C49.8117 53.522 50.4274 52.9063 50.4274 52.147C50.4274 51.3876 49.8119 50.772 49.0524 50.772Z" fill="#3568B4"></path>
<path d="M49.0524 44.522H46.1572C45.3979 44.522 44.7822 45.1376 44.7822 45.897C44.7822 46.6563 45.3979 47.272 46.1572 47.272H49.0524C49.8117 47.272 50.4274 46.6563 50.4274 45.897C50.4274 45.1376 49.8119 44.522 49.0524 44.522Z" fill="#3568B4"></path>
</svg>